# xmcd
#
# Track frame offsets:
#	150
#	19264
#	36970
#	52617
#	63132
#	79815
#	89474
#	104100
#	120098
#	128437
#	145709
#	157626
#	176246
#
# Disc length: 2532 seconds
#
# Revision: 0
# Processed by: cddbd v1.5.1PL2 Copyright (c) Steve Scherf et al.
# Submitted via: dBpowerAMP V4.0
#
DISCID=9809e20d
DTITLE=The Weary Boys - Jumpin' Jolie
DYEAR=2006
DGENRE=Country
TTITLE0=Jumpin' Jolie
TTITLE1=Lost Bayou Ramble
TTITLE2=Drink On It
TTITLE3=Baby Have No Fun
TTITLE4=California Sunset
TTITLE5=You're The One I Care For
TTITLE6=Vaya Con Dios
TTITLE7=Baby's Got A Hold On Me
TTITLE8=Hoot Owl
TTITLE9=Destination Nowhere
TTITLE10=Bet My Life
TTITLE11=Jambalaya
TTITLE12=Humboldt County
EXTD=
EXTT0=
EXTT1=
EXTT2=
EXTT3=
EXTT4=
EXTT5=
EXTT6=
EXTT7=
EXTT8=
EXTT9=
EXTT10=
EXTT11=
EXTT12=
PLAYORDER=
